# xmcd CD database file
#
# Track frame offsets:
#	150
#	21147
#	43050
#
# Disc length: 851 seconds
#
# Revision: 0
# Processed by: cddbd v1.5PL3 Copyright (c) Steve Scherf et al.
# Submitted via: CDex 1.51
#
DISCID=1d035103
DTITLE=高橋理華 - 絶対に逢いたくなる
DYEAR=1900
DGENRE=J-POP
TTITLE0=絶対に逢いたくなる
TTITLE1=泳げない魚〜キスでごまかかさなでね〜
TTITLE2=絶対に逢いたくなる（オリジナルカラオケ）
EXTD=
EXTT0=
EXTT1=
EXTT2=
PLAYORDER=
